EMG
version=1
nRows=24
nColumns=17
inDegrees=no
endheader
time	_right_gast_med	_right_glut_max	_left_gast_med	_left_glut_max	_right_glut_med	_right_bic_fem	_right_rect_fem	_right_vast_lat	_right_vast_med	_right_tens_fasc_lat	_left_glut_med	_left_bic_fem	_left_rect_fem	_left_vast_lat	_left_vast_med	_left_tens_fasc_lat
      1.32000000	      1.43379283	      0.15386729	     -0.00338646	      0.19584122	      0.00239206	      0.01551926	      0.03348597	      0.01036511	     -0.00045814	      0.03834195	      0.02627089	      0.08851839	      0.02678703	      0.01463698	      0.02018679	     -0.01056502
      1.33000000	      3.09257793	      0.06628887	     -0.00084118	      0.22199611	      0.00910551	      0.02152600	      0.03215472	      0.01477500	     -0.06050458	      0.02814863	      0.02391358	      0.06213154	      0.01579107	     -0.01416126	     -0.02032500	     -0.00180382
      1.34000000	      1.87650371	     -0.03864802	      0.01556100	      0.17709312	      0.01199477	      0.02047618	      0.01616263	      0.01233191	     -0.05016850	      0.02239349	      0.02014938	      0.02957866	     -0.00656793	     -0.02512298	     -0.05402845	      0.00904404
      1.35000000	     -1.26434410	     -0.09413485	      0.00646806	      0.12281370	      0.00852689	      0.00925627	     -0.00041078	      0.00353361	     -0.03181491	      0.01765442	      0.02074456	      0.01486526	     -0.01093200	     -0.01571778	     -0.05330901	      0.00850429
      1.36000000	     -2.99569392	     -0.12733440	     -0.01711403	      0.07915309	      0.00672298	      0.00368100	     -0.00221100	      0.00073045	     -0.02120238	      0.01213890	      0.02044787	      0.01670664	     -0.00209469	     -0.00349876	     -0.02116338	      0.00021115
      1.37000000	     -0.29062304	     -0.14681521	     -0.01761931	      0.04204557	      0.01182872	      0.00499524	     -0.00313618	      0.00333455	     -0.01435841	      0.00995671	      0.01702797	      0.01412676	      0.01476643	     -0.00425600	      0.00983009	     -0.00108092
      1.38000000	      2.43907690	     -0.13201538	      0.00697141	      0.01404460	      0.01318743	      0.00382690	     -0.00329401	      0.00663259	     -0.01140712	      0.00330305	      0.00886071	      0.00867325	      0.02348031	     -0.00747700	      0.01547870	     -0.00334421
      1.39000000	      0.78863955	     -0.05690029	      0.03059387	     -0.01781976	      0.01912449	      0.00219766	     -0.00618572	      0.00755973	     -0.01149093	     -0.00191769	      0.00005095	      0.00517470	      0.01884019	     -0.00542994	      0.00048514	     -0.00782631
      1.40000000	     -1.55658579	      0.01648195	      0.03552192	     -0.02105871	      0.02856112	      0.00528336	     -0.00369457	      0.01172526	     -0.00494382	     -0.00020567	      0.00175962	      0.00947741	      0.00932116	     -0.00483173	     -0.00742134	     -0.00807732
      1.41000000	     -1.37625027	      0.00105062	      0.02366264	      0.02580654	      0.03196878	      0.00966527	      0.00894309	      0.00825681	      0.02649083	     -0.00032593	      0.00849756	      0.01205152	      0.00948068	     -0.00445204	     -0.00421609	     -0.00717079
      1.42000000	     -0.46711913	     -0.03961950	      0.01170246	      0.05325241	      0.02279505	      0.01488318	      0.01836353	      0.00487812	      0.05607280	      0.00022027	      0.01073653	      0.01173692	      0.01464587	     -0.00343346	      0.00743562	     -0.00245588
      1.43000000	     -0.07965551	     -0.01685541	      0.00269551	      0.04647075	      0.01055654	      0.01669339	      0.01646726	      0.01580599	      0.06435480	      0.00525315	      0.00518831	     -0.01625531	      0.01397418	     -0.00557492	      0.02129399	      0.01145089
      1.44000000	      0.02891687	      0.05646668	     -0.00226461	      0.03616219	      0.00095100	      0.01118837	      0.01298798	      0.02276012	      0.06044357	      0.00745249	     -0.00401908	     -0.03143727	      0.01381710	     -0.00767428	      0.02353347	      0.02020700
      1.45000000	      0.04086283	      0.08928954	     -0.00056290	      0.02839273	     -0.00445241	      0.00822460	      0.01258335	      0.02714329	      0.02039828	      0.00963420	     -0.00715122	     -0.03106008	      0.01333107	     -0.00447862	      0.02003251	      0.01607069
      1.46000000	     -0.00413175	      0.13102849	      0.00684534	      0.01148237	     -0.00526986	      0.01420613	      0.00828820	      0.03266856	     -0.04311381	      0.01174369	     -0.00215862	     -0.02966603	      0.01133146	     -0.00249715	      0.02107150	      0.01133903
      1.47000000	      0.03799270	      0.14713041	      0.01170892	     -0.02511537	      0.00057354	      0.01563816	      0.00438493	      0.03338151	     -0.06681021	      0.01377799	      0.00383004	     -0.00479668	      0.01561961	      0.01980199	      0.01905034	      0.01264438
      1.48000000	      0.07365040	      0.11584020	      0.00650391	     -0.04638927	      0.00380558	      0.01119568	      0.01015716	      0.05135584	     -0.04426608	      0.02236716	      0.00464067	      0.00884928	      0.01254399	      0.03254162	      0.01606388	      0.01206661
      1.49000000	      0.11305480	      0.06420732	      0.00387435	     -0.04191704	      0.00528431	      0.01514184	      0.01747697	      0.03039208	      0.00613894	      0.01519058	      0.00460469	      0.02419234	      0.00327470	      0.02731208	      0.01346024	      0.01322211
      1.50000000	      0.09634167	      0.02819641	      0.00976626	     -0.03381218	      0.00176419	      0.02197930	      0.01403525	     -0.00901165	      0.05469226	     -0.00044849	      0.00159696	      0.04212889	      0.00967838	      0.01622873	      0.01110047	      0.02390322
      1.51000000	      0.03421927	      0.01831586	      0.01527769	     -0.02628719	     -0.00970334	      0.02163780	     -0.00045471	     -0.01619033	      0.07017384	     -0.00443582	     -0.00160594	      0.03796038	      0.02331596	      0.00180147	      0.00171916	      0.03445185
      1.52000000	      0.07627296	      0.01158958	      0.01222796	     -0.01507090	     -0.01473891	      0.01508280	     -0.00904100	     -0.00416449	      0.05859225	     -0.00976692	     -0.00060843	     -0.00084743	      0.01374585	      0.00903346	     -0.02913798	      0.02648236
      1.53000000	      0.07125144	      0.01033412	      0.00132756	      0.00171564	     -0.01063501	      0.00813909	      0.00010380	     -0.00008584	      0.02647148	     -0.01630856	     -0.00150126	     -0.02840629	      0.00697873	      0.02507469	     -0.06783582	      0.00636358
      1.54000000	     -0.32277602	      0.00782948	     -0.00789578	      0.01057980	     -0.00388677	      0.00722161	      0.01502274	     -0.00124224	     -0.02223637	     -0.01407160	     -0.00553888	     -0.02162444	      0.03499502	     -0.01891529	     -0.14439026	     -0.00155385
      1.55000000	     -0.76332843	     -0.00480570	      0.00027342	      0.01368917	      0.00292415	      0.01211310	      0.02588962	      0.00045052	     -0.06302221	     -0.00523409	     -0.00882205	      0.00281241	      0.03549336	     -0.07756153	     -0.23877963	      0.00585848
